<svg xmlns="http://www.w3.org/2000/svg" viewBox="0 0 64 64" fill="none">
  <defs>
    <linearGradient id="g" x1="0%" y1="0%" x2="100%" y2="100%">
      <stop offset="0%" stop-color="#FF0053"/>
      <stop offset="100%" stop-color="#8A83D1"/>
    </linearGradient>
    <filter id="glow" x="-20%" y="-20%" width="140%" height="140%">
      <feGaussianBlur stdDeviation="3" result="blur"/>
      <feComposite in="SourceGraphic" in2="blur" operator="over"/>
    </filter>
  </defs>
  <rect width="64" height="64" rx="16" fill="#161320"/>
  <rect x="1" y="1" width="62" height="62" rx="15" stroke="rgba(255,255,255,0.1)" stroke-width="2"/>
  <!-- Camera Reticle / Target Corners -->
  <path d="M12 24V16H20" stroke="#FF0053" stroke-width="2.5" stroke-linecap="round"/>
  <path d="M52 24V16H44" stroke="#FF0053" stroke-width="2.5" stroke-linecap="round"/>
  <path d="M12 40V48H20" stroke="#FF0053" stroke-width="2.5" stroke-linecap="round"/>
  <path d="M52 40V48H44" stroke="#FF0053" stroke-width="2.5" stroke-linecap="round"/>
  <!-- Minimalist Car Contour -->
  <path d="M20 37L24 26H40L44 37M18 37H46C48 37 49 38 49 40V42H15V40C15 38 16 37 18 37Z" stroke="url(#g)" stroke-width="2.5" stroke-linejoin="round" stroke-linecap="round"/>
  <circle cx="23" cy="42" r="3" fill="#FF0053"/>
  <circle cx="41" cy="42" r="3" fill="#8A83D1"/>
  <!-- Reticle Center Cross -->
  <circle cx="32" cy="32" r="2" fill="#FF0053" filter="url(#glow)"/>
</svg>
